<svg width="20" height="20" viewBox="0 0 20 20" xmlns="http://www.w3.org/2000/svg">
<path d="M9.98253 2.00034C10.1372 1.99461 10.2857 2.06122 10.3849 2.18003L18.7179 12.18C18.8072 12.2872 18.8484 12.4274 18.8302 12.5658C18.812 12.7041 18.7361 12.8281 18.6222 12.9085L11.5392 17.9085C11.4075 18.0015 11.2393 18.0258 11.087 17.973L1.50401 14.64C1.35523 14.5882 1.23926 14.4688 1.19151 14.3187C1.14385 14.1686 1.16933 14.0045 1.26085 13.8763L9.59386 2.20933L9.67101 2.12437C9.75656 2.04926 9.86647 2.00467 9.98253 2.00034ZM2.463 13.9134L11.173 16.9427L17.6026 12.4037L10.0314 3.31773L2.463 13.9134Z" fill="currentColor"/>
<path d="M11.7491 17.457L10.7531 17.541L9.50305 2.54102L10.4991 2.45703L11.7491 17.457Z" fill="currentColor"/>
</svg>
