<svg width="20" height="20" viewBox="0 0 20 20" xmlns="http://www.w3.org/2000/svg">
<path d="M18 6.5C18 5.94814 17.5519 5.5 17 5.5H3C2.44814 5.5 2 5.94814 2 6.5V14C2 14.5519 2.44814 15 3 15H17C17.5519 15 18 14.5519 18 14V6.5ZM19 14C19 15.1041 18.1041 16 17 16H3C1.89586 16 1 15.1041 1 14V6.5C1 5.39586 1.89586 4.5 3 4.5H17C18.1041 4.5 19 5.39586 19 6.5V14Z" fill="currentColor"/>
<path d="M12.6201 1.17476C12.7998 0.965174 13.1155 0.940583 13.3252 1.12007C13.5348 1.29971 13.5594 1.61548 13.3799 1.82515L10.3799 5.32515C10.2849 5.43597 10.146 5.49995 10 5.49995C9.85405 5.49995 9.71512 5.43597 9.62013 5.32515L6.62013 1.82515C6.44064 1.61548 6.46523 1.29971 6.67482 1.12007C6.88448 0.940583 7.20025 0.965174 7.3799 1.17476L10 4.2314L12.6201 1.17476Z" fill="currentColor"/>
<path d="M13 17C13.2761 17 13.5 17.2239 13.5 17.5C13.5 17.7761 13.2761 18 13 18H7C6.72386 18 6.5 17.7761 6.5 17.5C6.5 17.2239 6.72386 17 7 17H13Z" fill="currentColor"/>
</svg>
