<svg width="20" height="20" viewBox="0 0 20 20" xmlns="http://www.w3.org/2000/svg">
<path d="M15.208 3.33496C15.208 2.75972 14.7413 2.29297 14.166 2.29297H5.83301C5.25777 2.29297 4.79102 2.75972 4.79102 3.33496V16.668C4.79102 17.2432 5.25777 17.71 5.83301 17.71H14.166C14.7413 17.71 15.208 17.2432 15.208 16.668V3.33496ZM16.458 16.668C16.458 17.9336 15.4316 18.96 14.166 18.96H5.83301C4.56741 18.96 3.54102 17.9336 3.54102 16.668V3.33496C3.54102 2.06937 4.56741 1.04297 5.83301 1.04297H14.166C15.4316 1.04297 16.458 2.06937 16.458 3.33496V16.668Z" fill="currentColor"/>
<path d="M6.87433 4.37598V6.87598H13.1243V4.37598H6.87433ZM14.3743 6.87598C14.3743 7.56615 13.8145 8.12598 13.1243 8.12598H6.87433C6.18415 8.12598 5.62433 7.56615 5.62433 6.87598V4.37598C5.62433 3.6858 6.18415 3.12598 6.87433 3.12598H13.1243C13.8145 3.12598 14.3743 3.6858 14.3743 4.37598V6.87598Z" fill="currentColor"/>
<path d="M12.083 5.00098C12.428 5.00115 12.708 5.28091 12.708 5.62598C12.708 5.97105 12.428 6.2508 12.083 6.25098H7.91602C7.57084 6.25098 7.29102 5.97115 7.29102 5.62598C7.29102 5.2808 7.57084 5.00098 7.91602 5.00098H12.083Z" fill="currentColor"/>
<path d="M12.2906 12.918C12.2906 11.6524 11.2651 10.6262 9.99963 10.626C8.73398 10.626 7.70764 11.6523 7.70764 12.918C7.70782 14.1835 8.73409 15.209 9.99963 15.209C11.265 15.2088 12.2905 14.1834 12.2906 12.918ZM13.5406 12.918C13.5405 14.8737 11.9554 16.4588 9.99963 16.459C8.04373 16.459 6.45782 14.8738 6.45764 12.918C6.45764 10.962 8.04362 9.37598 9.99963 9.37598C11.9555 9.37615 13.5406 10.9621 13.5406 12.918Z" fill="currentColor"/>
<path d="M10.599 11.4338C10.8429 11.19 11.2387 11.1901 11.4827 11.4338C11.7268 11.6779 11.7268 12.0745 11.4827 12.3186L10.4417 13.3596C10.1976 13.6037 9.80104 13.6037 9.55696 13.3596C9.31326 13.1155 9.31315 12.7198 9.55696 12.4758L10.599 11.4338Z" fill="currentColor"/>
</svg>
