<svg width="48" height="48" viewBox="0 0 48 48" xmlns="http://www.w3.org/2000/svg">
<path d="M6.74988 28C6.74988 23.8473 9.81823 20.4121 13.8114 19.8359C13.9039 19.1756 14.5011 18.6997 15.1708 18.7656C15.8576 18.8335 16.3595 19.4459 16.2919 20.1328C16.264 20.4159 16.2499 20.7059 16.2499 21C16.2499 21.6904 15.6902 22.25 14.9999 22.25C11.8242 22.25 9.24988 24.8244 9.24988 28C9.24988 31.1756 11.8242 33.75 14.9999 33.75H30.0497C30.74 33.75 31.2997 34.3096 31.2997 35C31.2997 35.6904 30.74 36.25 30.0497 36.25H14.9999C10.4435 36.25 6.74988 32.5564 6.74988 28ZM40.7499 28C40.7499 24.8244 38.1755 22.25 34.9999 22.25C34.3095 22.25 33.7499 21.6904 33.7499 21C33.7499 16.1674 29.8325 12.25 24.9999 12.25C22.7984 12.25 20.7889 13.0623 19.2509 14.4043C18.7308 14.858 17.9411 14.804 17.4872 14.2842C17.0333 13.764 17.0872 12.9744 17.6073 12.5205C19.5833 10.7965 22.1713 9.75 24.9999 9.75C30.8202 9.75 35.6079 14.1696 36.1903 19.8359C40.1825 20.413 43.2499 23.8479 43.2499 28C43.2499 30.8802 41.7732 33.4141 39.5419 34.8877C38.9658 35.2681 38.1899 35.1102 37.8094 34.5342C37.429 33.9581 37.5879 33.1822 38.1639 32.8018C39.7244 31.7713 40.7499 30.0056 40.7499 28Z" fill="currentColor"/>
<path d="M5.11612 5.11612C5.60427 4.62796 6.39554 4.62796 6.88369 5.11612L42.8837 41.1161C43.3718 41.6043 43.3718 42.3955 42.8837 42.8837C42.3955 43.3718 41.6043 43.3718 41.1161 42.8837L5.11612 6.88369C4.62796 6.39554 4.62796 5.60427 5.11612 5.11612Z" fill="currentColor"/>
</svg>
