<svg width="20" height="20" viewBox="0 0 20 20" xmlns="http://www.w3.org/2000/svg">
<path d="M11.167 13.3135V5.91699H3.41699V17.917H2.41699V5.41699C2.41699 5.14085 2.64085 4.91699 2.91699 4.91699H11.667C11.9431 4.91699 12.167 5.14085 12.167 5.41699V13.3135C12.1667 13.5894 11.943 13.8135 11.667 13.8135C11.391 13.8135 11.1673 13.5894 11.167 13.3135Z" fill="currentColor"/>
<path d="M10 6.58301C10.2761 6.58301 10.5 6.80687 10.5 7.08301V10C10.5 10.2761 10.2761 10.5 10 10.5H4.58301C4.30687 10.5 4.08301 10.2761 4.08301 10V7.08301C4.08301 6.80687 4.30687 6.58301 4.58301 6.58301H10ZM5.08301 9.5H9.5V7.58301H5.08301V9.5Z" fill="currentColor"/>
<path d="M7.91701 11.667L5.83301 14.257H7.29201L6.66701 16.25L8.45301 14.257L9.16701 13.333H7.50001L7.91701 11.667Z" fill="currentColor"/>
<path d="M11.6465 17.417C11.9224 17.4172 12.1465 17.641 12.1465 17.917C12.1465 18.193 11.9224 18.4167 11.6465 18.417H2.08301C1.80687 18.417 1.58301 18.1931 1.58301 17.917C1.58301 17.6409 1.80687 17.417 2.08301 17.417H11.6465Z" fill="currentColor"/>
<path d="M12.833 11.6465V10.5H11.667V9.5H13.333C13.6091 9.50001 13.833 9.72387 13.833 10V11.6465C13.8328 11.9224 13.609 12.1465 13.333 12.1465C13.057 12.1465 12.8333 11.9224 12.833 11.6465ZM14.917 11.042V4.58301H15.917V11.042C15.917 11.3181 15.6931 11.542 15.417 11.542C15.1409 11.542 14.917 11.3181 14.917 11.042Z" fill="currentColor"/>
<path d="M17.083 2.83301C17.3591 2.83301 17.583 3.05687 17.583 3.33301V4.58301C17.583 4.85915 17.3591 5.083 17.083 5.08301H13.75C13.4739 5.08301 13.25 4.85915 13.25 4.58301V3.33301C13.25 3.05687 13.4739 2.83301 13.75 2.83301H17.083ZM14.25 4.08301H16.583V3.83301H14.25V4.08301Z" fill="currentColor"/>
<path d="M14.083 2.08301C14.083 1.80687 14.3069 1.58301 14.583 1.58301C14.8591 1.58301 15.083 1.80687 15.083 2.08301V3.33301H14.083V2.08301Z" fill="currentColor"/>
<path d="M15.75 2.08301C15.75 1.80687 15.9739 1.58301 16.25 1.58301C16.5261 1.58301 16.75 1.80687 16.75 2.08301V3.33301H15.75V2.08301Z" fill="currentColor"/>
<path d="M18.25 15.625C18.25 14.1751 17.0749 13 15.625 13C14.1751 13 13 14.1751 13 15.625C13 17.0749 14.1751 18.25 15.625 18.25C17.0749 18.25 18.25 17.0749 18.25 15.625ZM19.25 15.625C19.25 17.6271 17.6271 19.25 15.625 19.25C13.6229 19.25 12 17.6271 12 15.625C12 13.6229 13.6229 12 15.625 12C17.6271 12 19.25 13.6229 19.25 15.625Z" fill="currentColor"/>
<path d="M15.125 17.083V14.167C15.125 13.8909 15.3489 13.667 15.625 13.667C15.9011 13.667 16.125 13.8909 16.125 14.167V17.083C16.125 17.3591 15.9011 17.583 15.625 17.583C15.3489 17.583 15.125 17.3591 15.125 17.083Z" fill="currentColor"/>
<path d="M17.083 15.125C17.3591 15.125 17.583 15.3489 17.583 15.625C17.583 15.9011 17.3591 16.125 17.083 16.125H14.167C13.8909 16.125 13.667 15.9011 13.667 15.625C13.667 15.3489 13.8909 15.125 14.167 15.125H17.083Z" fill="currentColor"/>
</svg>
