<svg width="20" height="20" viewBox="0 0 20 20" xmlns="http://www.w3.org/2000/svg">
<path d="M12.6854 1.55827C13.6236 1.02564 14.7763 1.03719 15.7029 1.59049L15.8719 1.69889C16.5424 2.16145 16.9902 2.87424 17.1238 3.66764C17.7446 3.67914 18.3414 3.95693 18.7498 4.44987C19.2869 5.09614 19.4022 5.99406 19.0447 6.75456C18.6873 7.51499 17.9225 7.99967 17.0828 7.99967H11.6668C10.4697 7.99967 9.49982 7.02982 9.49982 5.83268C9.49982 4.79623 10.228 3.93049 11.201 3.71745C11.3373 2.81611 11.8787 2.01628 12.6854 1.55827ZM10.4998 5.83268C10.4998 6.47754 11.022 6.99967 11.6668 6.99967H17.0828C17.5352 6.99967 17.9469 6.73834 18.1395 6.32878C18.3318 5.91939 18.27 5.43716 17.9813 5.08952L17.9803 5.08854C17.6921 4.7403 17.2292 4.59032 16.7908 4.70378C16.6393 4.7429 16.478 4.70906 16.3553 4.61198C16.2326 4.51484 16.1625 4.36513 16.1658 4.20866C16.1809 3.4884 15.809 2.81651 15.1912 2.44889C14.574 2.08041 13.8042 2.07218 13.1785 2.42741C12.5532 2.7825 12.1668 3.44647 12.1668 4.16667C12.1668 4.44281 11.943 4.66667 11.6668 4.66667C11.0218 4.66667 10.4998 5.18902 10.4998 5.83268Z" fill="currentColor"/>
<path d="M8.40881 9.50076C10.1829 9.53583 11.6697 10.7761 12.0631 12.4539C12.8635 12.3167 13.6972 12.5628 14.2975 13.1443C15.0049 13.8309 15.2579 14.8559 14.9606 15.7849L14.8942 15.9695C14.4986 16.9452 13.5511 17.5828 12.4996 17.5828H4.58264C3.59477 17.5827 2.69325 17.0196 2.26038 16.1306C1.82763 15.2416 1.94062 14.1835 2.54944 13.406L2.66858 13.2654C3.16809 12.7143 3.8771 12.409 4.61096 12.4168C5.03195 10.6982 6.59668 9.46498 8.40881 9.50076ZM8.38928 10.5008C6.92555 10.4719 5.68052 11.5634 5.51819 13.0183C5.50243 13.1586 5.42758 13.2854 5.31311 13.3679C5.19849 13.4505 5.0538 13.4805 4.91565 13.451C4.32272 13.3242 3.71053 13.5467 3.33655 14.0232C2.96361 14.4997 2.8947 15.1474 3.15979 15.6922C3.42494 16.2369 3.97678 16.5827 4.58264 16.5828H12.4996C13.1441 16.5828 13.7249 16.1917 13.9674 15.5935L14.0084 15.4803C14.1902 14.9118 14.0355 14.2836 13.6012 13.8621C13.1382 13.414 12.4491 13.2902 11.86 13.5506C11.7112 13.6163 11.5395 13.6061 11.4 13.5222C11.2606 13.4384 11.1704 13.291 11.1588 13.1287C11.0541 11.6691 9.85376 10.5298 8.38928 10.5008Z" fill="currentColor"/>
</svg>
